<?xml version="1.0" standalone="no"?>
<!DOCTYPE svg PUBLIC "-//W3C//DTD SVG 20010904//EN"
 "http://www.w3.org/TR/2001/REC-SVG-20010904/DTD/svg10.dtd">
<svg version="1.0" xmlns="http://www.w3.org/2000/svg"
 width="600.000000pt" height="325.000000pt" viewBox="0 0 600.000000 325.000000"
 preserveAspectRatio="xMidYMid meet">

<g transform="translate(0.000000,325.000000) scale(0.100000,-0.100000)"
fill="#000000" stroke="none">
<path d="M4910 2455 c0 -9 5 -15 11 -13 6 2 11 8 11 13 0 5 -5 11 -11 13 -6 2
-11 -4 -11 -13z"/>
<path d="M4006 2340 c-16 -5 -38 -18 -50 -29 -15 -14 -47 -23 -107 -31 -81
-11 -88 -10 -120 9 -44 27 -53 26 -94 -6 -37 -30 -32 -43 18 -43 16 0 26 -4
22 -10 -3 -5 -15 -10 -26 -10 -10 0 -19 -5 -19 -11 0 -8 17 -10 56 -6 37 4 69
1 97 -9 28 -11 61 -14 98 -10 52 5 58 3 84 -24 34 -36 49 -38 39 -8 -6 20 -5
21 10 9 9 -7 16 -10 16 -6 0 4 6 3 13 -2 6 -6 24 -13 40 -17 15 -3 27 -12 27
-19 0 -6 15 -19 33 -28 34 -16 116 -122 117 -150 0 -9 -12 -33 -26 -54 -25
-38 -22 -54 12 -55 6 0 18 -10 26 -22 l15 -22 52 26 c28 15 51 23 51 19 0 -5
-21 -53 -47 -107 -40 -84 -47 -110 -51 -174 -4 -68 0 -85 38 -190 31 -86 44
-139 50 -210 l9 -95 -30 -37 c-16 -20 -29 -46 -29 -57 0 -28 42 -37 98 -22 38
10 47 9 62 -4 9 -8 24 -15 33 -15 19 0 32 39 23 68 -5 15 5 29 41 58 26 21 76
65 111 96 52 48 67 56 82 48 10 -6 26 -10 34 -10 19 0 31 43 18 66 -7 13 -3
29 14 62 13 25 24 55 24 67 0 29 -24 48 -48 41 -22 -7 -32 15 -32 70 0 43 -19
63 -65 71 -24 4 -56 20 -80 39 -22 19 -53 44 -70 58 l-29 24 52 56 c31 35 54
70 57 90 7 35 -13 96 -42 128 -8 9 -13 26 -10 37 2 11 2 35 -2 53 -6 28 -17
39 -70 68 -35 19 -62 40 -60 45 2 6 41 10 86 10 73 0 85 3 105 23 l23 23 -28
25 c-19 16 -35 22 -51 18 -14 -3 -27 1 -35 10 -11 13 -36 16 -123 16 -81 0
-117 4 -140 16 -23 12 -49 15 -97 12 -55 -4 -68 -1 -81 15 -18 21 -82 30 -124
17z m516 -822 c34 -24 69 -55 76 -70 14 -30 39 -37 48 -13 12 30 23 14 30 -42
3 -32 11 -67 17 -78 9 -17 1 -27 -54 -77 -35 -32 -66 -58 -69 -58 -15 0 -52
78 -89 186 -39 115 -52 194 -32 194 5 0 38 -19 73 -42z"/>
<path d="M1964 2202 c-68 -119 -68 -119 -93 -106 -14 8 -34 14 -44 14 -26 0
-74 -27 -81 -45 -11 -29 -6 -88 8 -104 7 -9 18 -29 23 -46 9 -25 6 -38 -16
-77 -14 -27 -33 -48 -42 -48 -20 0 -99 -120 -99 -151 0 -15 19 -45 53 -81 69
-75 92 -76 151 -12 40 43 44 45 59 29 9 -9 17 -20 17 -25 0 -20 56 -59 106
-75 73 -23 71 -41 -13 -104 -113 -84 -178 -142 -187 -166 -11 -26 -1 -42 73
-121 28 -30 51 -62 51 -72 0 -9 15 -66 34 -125 l34 -109 -28 -41 c-34 -51 -57
-72 -87 -81 -31 -10 -30 -44 2 -52 13 -3 73 -2 132 3 l108 8 -2 45 c-1 25 -4
59 -8 77 -6 26 -3 33 14 42 12 7 21 10 21 7 0 -2 14 9 30 24 17 15 30 33 30
38 0 6 -19 27 -42 47 -52 44 -98 110 -98 140 0 13 22 41 62 76 199 176 218
201 219 282 1 38 -6 66 -25 101 -14 27 -26 63 -26 79 0 25 -14 43 -75 100 -41
39 -100 102 -130 141 -54 71 -97 106 -131 106 -14 0 -15 3 -7 11 9 9 5 20 -14
45 -13 18 -23 37 -21 41 1 4 36 56 76 116 84 124 98 153 81 173 -27 33 -47 15
-115 -104z m-130 -368 c3 -8 -1 -28 -9 -44 -8 -16 -15 -36 -15 -45 0 -21 -13
-19 -35 5 -17 19 -17 21 9 60 28 43 40 49 50 24z m-80 -180 c13 -5 14 -9 5
-20 -17 -21 -39 -17 -39 6 0 21 8 24 34 14z"/>
<path d="M5299 2273 c-1 -4 -1 -11 0 -15 0 -5 -7 -8 -17 -8 -22 0 -42 -19 -42
-39 0 -9 -18 -27 -40 -40 -22 -14 -56 -42 -77 -63 -33 -34 -35 -40 -25 -63 7
-14 32 -47 57 -74 41 -43 43 -49 30 -67 -12 -16 -12 -22 2 -43 11 -17 12 -29
5 -45 -49 -103 -72 -156 -72 -166 0 -6 -11 -32 -24 -58 -13 -26 -27 -61 -30
-79 -4 -17 -14 -37 -22 -44 -8 -7 -14 -30 -14 -58 0 -25 -5 -79 -10 -119 -8
-63 -7 -84 11 -145 11 -40 22 -103 25 -142 9 -128 46 -390 58 -404 9 -12 -5
-13 -97 -9 -82 5 -115 3 -135 -8 -15 -8 -52 -14 -82 -14 -34 0 -50 -4 -45 -9
6 -6 65 -11 132 -12 67 -1 143 -6 170 -11 26 -6 98 -11 158 -13 69 -2 128 -9
158 -20 26 -9 56 -13 67 -10 36 11 57 64 64 160 7 88 7 91 -18 113 -14 12 -26
29 -26 38 0 31 -78 182 -100 194 -13 7 -19 17 -16 27 4 9 2 21 -4 28 -7 9 -5
60 6 166 13 129 14 165 3 222 -10 55 -10 72 1 95 15 30 17 36 19 57 0 8 30 48
65 88 76 87 86 105 86 151 0 19 4 36 10 38 6 2 4 14 -4 29 -13 26 -12 28 26
53 l40 26 183 -176 c163 -157 183 -179 181 -206 -2 -42 19 -46 33 -6 9 26 9
34 -1 37 -7 2 -97 87 -200 189 -186 184 -188 187 -188 229 0 58 -27 85 -81 82
-42 -3 -63 10 -64 41 0 11 -3 19 -7 17 -4 -1 -25 16 -47 37 -22 22 -48 40 -58
41 -10 0 -24 4 -31 9 -6 4 -13 4 -13 -1z m1 -108 c0 -2 -10 -10 -22 -16 -21
-11 -22 -11 -9 4 13 16 31 23 31 12z m145 -46 c19 -18 19 -19 -3 -48 -12 -17
-22 -38 -22 -48 0 -10 -5 -25 -10 -33 -8 -13 -14 -12 -47 5 -35 19 -38 23 -35
60 1 22 7 52 13 67 10 24 15 26 47 21 21 -3 46 -14 57 -24z m-170 -1255 c59
-150 82 -198 97 -202 17 -4 19 -11 14 -41 -3 -20 -6 -47 -6 -60 0 -22 -2 -23
-47 -17 -72 11 -82 15 -89 42 -3 13 -14 28 -23 34 -12 6 -13 12 -5 20 8 8 9
23 3 43 -13 52 -35 377 -25 377 2 0 39 -88 81 -196z"/>
<path d="M3238 2229 c-21 -11 -38 -25 -38 -32 0 -7 -33 -47 -73 -90 -40 -43
-71 -80 -68 -82 2 -3 19 -5 38 -5 39 0 71 28 80 71 l6 30 28 -27 c16 -15 29
-33 29 -40 0 -7 -24 -26 -54 -42 -52 -30 -204 -183 -281 -285 -45 -59 -85
-143 -85 -180 0 -43 25 -83 74 -116 48 -34 96 -86 96 -105 0 -7 -11 -25 -25
-40 -22 -23 -28 -25 -47 -15 -12 7 -38 13 -58 15 -123 9 -267 29 -279 38 -10
8 -20 3 -42 -22 -34 -38 -37 -62 -9 -69 18 -5 17 -8 -15 -32 -19 -14 -50 -45
-70 -68 -20 -23 -44 -45 -55 -48 -23 -7 -25 -26 -7 -77 16 -45 27 -58 27 -32
0 58 96 191 161 224 13 7 -2 -11 -33 -39 -80 -73 -113 -142 -112 -241 0 -100
28 -164 101 -230 67 -61 136 -85 228 -78 102 9 211 82 255 174 l22 44 26 -28
c38 -40 92 -57 137 -42 47 16 95 72 95 113 0 32 0 33 52 35 29 1 60 4 69 7 12
4 18 -7 28 -49 17 -77 64 -142 134 -187 69 -45 104 -53 196 -47 115 8 207 74
263 187 33 67 33 197 0 261 -50 95 -140 162 -244 179 -29 5 -43 9 -31 10 12 0
24 5 28 10 8 13 -57 25 -97 17 -19 -3 -40 0 -49 7 -15 11 -40 72 -44 107 -1 8
-5 23 -10 34 -6 14 -3 23 13 35 11 9 24 28 27 43 9 34 -18 44 -66 25 -35 -14
-69 -15 -104 -4 -14 5 -38 43 -72 114 -63 133 -71 161 -75 244 -3 75 7 94 53
104 40 9 51 36 52 127 0 96 -9 109 -85 114 -38 2 -63 -2 -90 -17z m-8 -550
c10 -39 26 -66 69 -114 31 -34 65 -79 77 -101 19 -38 22 -39 70 -38 27 0 59 4
72 8 19 6 22 4 22 -16 0 -26 -6 -30 -132 -99 -96 -52 -96 -52 -77 30 5 24 7
52 4 62 -8 25 -84 63 -176 89 -85 23 -115 47 -106 82 10 37 46 79 83 94 18 8
41 25 51 38 10 13 21 22 24 20 4 -2 13 -27 19 -55z m-20 -346 c0 -3 -5 -23
-12 -44 l-11 -39 -18 53 c-10 28 -18 53 -19 54 0 1 14 -3 30 -8 17 -6 30 -13
30 -16z m329 0 c-23 -25 -218 -251 -227 -263 -10 -13 -31 36 -26 59 19 86 21
88 142 161 64 38 121 70 126 70 6 0 -2 -12 -15 -27z m34 -70 c-9 -13 -24 -28
-34 -34 -11 -5 -19 -17 -19 -25 0 -13 6 -12 36 6 49 31 53 19 4 -15 -21 -15
-51 -43 -66 -62 -30 -39 -64 -122 -64 -154 0 -16 -4 -19 -22 -14 -32 9 -73 40
-73 54 0 21 238 292 246 279 4 -6 0 -22 -8 -35z m-529 -8 l19 -34 -49 -45
c-45 -40 -64 -48 -64 -27 0 5 11 25 25 45 14 21 23 41 20 46 -7 11 12 50 23
50 4 0 16 -16 26 -35z m-411 8 c-7 -2 -19 -2 -25 0 -7 3 -2 5 12 5 14 0 19 -2
13 -5z m212 -24 c45 -13 67 -27 59 -40 -3 -5 -15 -2 -27 5 -40 26 -139 39
-197 27 -60 -13 -80 -7 -29 8 47 13 146 13 194 0z m1023 -45 c102 -51 160
-157 149 -274 -6 -72 -33 -125 -90 -178 -61 -55 -108 -74 -187 -74 -213 -2
-340 205 -245 398 24 49 84 114 105 114 5 0 19 -31 31 -70 26 -78 103 -180
122 -161 7 7 0 23 -23 53 -19 23 -47 77 -62 121 l-28 78 23 9 c12 5 51 9 88 9
51 1 76 -5 117 -25z m-1048 -4 c68 -20 68 -19 -11 -134 -40 -58 -76 -106 -80
-106 -4 0 -27 51 -52 113 l-44 112 26 12 c32 15 114 16 161 3z m360 0 c0 -5
-5 -10 -11 -10 -5 0 -7 5 -4 10 3 6 8 10 11 10 2 0 4 -4 4 -10z m-526 -155
c27 -69 54 -126 60 -126 6 -1 30 -3 54 -4 28 -2 48 -10 60 -24 12 -14 38 -24
87 -31 38 -6 71 -13 74 -15 9 -10 -24 -68 -61 -104 -60 -60 -111 -81 -199 -81
-129 0 -215 60 -260 180 -26 69 -21 140 16 216 24 50 86 114 110 114 5 0 32
-57 59 -125z m541 47 c2 -19 -3 -49 -12 -66 l-17 -31 -20 63 -20 64 24 18 c22
17 26 17 34 3 4 -8 10 -31 11 -51z m-255 21 c0 -47 -14 -64 -78 -98 -36 -19
-67 -34 -68 -32 -6 6 96 132 112 138 29 12 34 10 34 -8z m160 -20 c0 -5 7 -29
15 -55 l14 -48 -42 0 c-37 0 -45 4 -61 31 -10 17 -16 32 -14 34 10 9 74 45 81
45 4 0 7 -3 7 -7z m-90 -105 c0 -5 -7 -8 -15 -8 -17 0 -18 2 -9 25 5 13 8 14
15 3 5 -7 9 -16 9 -20z m20 -57 c-8 -5 -46 -5 -85 -1 l-70 7 85 1 c51 1 79 -2
70 -7z m140 0 c0 -5 -7 -14 -15 -21 -20 -17 -19 -49 1 -57 22 -8 47 9 54 37 9
37 30 37 30 0 0 -35 -38 -80 -68 -80 -27 0 -72 38 -72 59 0 24 37 71 56 71 8
0 14 -4 14 -9z"/>
<path d="M750 1950 c0 -22 -40 -69 -63 -72 -12 -2 -20 -6 -17 -9 3 -3 -2 -14
-10 -23 -12 -16 -12 -19 3 -27 20 -12 22 -35 5 -43 -9 -3 -6 -11 10 -25 27
-23 22 -41 -11 -41 -12 0 -33 -6 -47 -13 -59 -32 -107 -61 -159 -96 -31 -21
-72 -41 -91 -44 -19 -3 -54 -9 -77 -12 -25 -5 -54 -3 -70 3 -16 6 -44 14 -63
18 -31 6 -33 5 -21 -9 11 -14 9 -15 -21 -7 -41 12 -58 13 -58 1 0 -4 15 -13
33 -19 l32 -10 -37 -1 c-47 -1 -61 -21 -16 -22 30 0 31 -1 10 -9 -34 -14 -26
-23 13 -17 39 6 42 2 19 -31 -19 -28 -10 -28 28 -1 27 20 42 22 150 20 90 -1
126 3 149 15 17 8 36 13 42 11 7 -2 34 7 60 20 27 13 51 23 53 20 5 -5 -14
-155 -21 -167 -3 -4 1 -13 9 -19 11 -9 9 -19 -11 -59 -21 -39 -24 -57 -20
-107 5 -55 2 -66 -43 -162 l-50 -103 -32 19 c-18 10 -57 24 -86 31 -40 9 -66
24 -106 61 -30 27 -58 49 -64 49 -14 0 -152 -159 -163 -188 -22 -56 20 -71 65
-23 18 18 43 32 67 36 21 4 41 11 44 16 9 13 72 -16 119 -55 54 -43 167 -116
181 -116 6 0 18 6 26 12 26 21 163 171 185 201 l20 29 46 -31 c44 -29 45 -33
51 -90 3 -35 17 -84 33 -118 97 -205 106 -228 101 -264 -6 -47 2 -58 44 -65
27 -4 50 3 109 34 41 22 84 52 95 66 18 24 18 27 3 42 -14 14 -22 15 -49 5
-46 -16 -96 -14 -103 5 -4 9 -2 13 5 8 7 -4 10 1 7 12 -2 12 -11 19 -25 18
-13 -1 -25 6 -27 15 -17 53 -66 300 -66 329 0 39 -11 62 -55 117 -60 74 -69
100 -55 166 11 49 17 59 40 67 17 7 30 20 34 37 4 15 17 43 30 64 13 20 26 50
30 66 4 17 13 39 21 49 20 26 43 6 38 -31 -6 -38 18 -66 58 -70 50 -4 77 5 84
27 6 20 35 17 35 -5 0 -19 34 -45 58 -45 58 0 173 84 208 152 11 22 12 33 3
49 -17 32 -79 20 -164 -30 -92 -54 -133 -66 -157 -44 -10 9 -18 24 -18 35 0
10 -9 26 -20 35 -11 10 -20 26 -20 37 0 25 -43 64 -105 97 -31 16 -51 33 -52
45 -1 10 -4 48 -6 84 -5 62 -6 66 -38 81 -46 22 -139 35 -139 19z"/>
<path d="M1136 1754 c-9 -8 -16 -22 -16 -29 0 -13 26 -45 36 -45 20 0 44 25
44 45 0 14 -8 29 -19 35 -25 13 -27 13 -45 -6z"/>
</g>
</svg>
