<?xml version="1.0" standalone="no"?>
<!DOCTYPE svg PUBLIC "-//W3C//DTD SVG 20010904//EN"
 "http://www.w3.org/TR/2001/REC-SVG-20010904/DTD/svg10.dtd">
<svg version="1.0" xmlns="http://www.w3.org/2000/svg"
 width="512.000000pt" height="512.000000pt" viewBox="0 0 512.000000 512.000000"
 preserveAspectRatio="xMidYMid meet">

<g transform="translate(0.000000,512.000000) scale(0.100000,-0.100000)"
fill="#000000" stroke="none">
<path d="M43 5110 c-12 -5 -26 -18 -32 -29 -15 -28 -15 -4543 0 -4627 37 -209
218 -395 426 -439 105 -22 3998 -22 4092 0 151 36 292 146 364 282 62 119 67
157 67 604 0 386 -1 397 -21 423 l-20 26 -459 0 -459 0 -3 271 -3 271 -24 19
c-30 25 -62 24 -95 -2 l-26 -20 0 -699 c0 -478 4 -716 11 -752 17 -78 59 -165
112 -231 l47 -57 -1744 0 c-1125 0 -1762 4 -1796 10 -111 21 -219 100 -276
200 -57 100 -54 -21 -52 2368 l3 2201 230 -99 c127 -55 239 -99 249 -100 11 0
157 52 326 115 169 63 312 115 318 115 7 0 150 -52 319 -115 168 -63 313 -115
321 -115 9 0 153 52 322 115 169 63 313 115 320 115 7 0 151 -52 320 -115 169
-63 313 -115 321 -115 8 0 156 47 329 105 173 58 316 105 317 105 2 0 3 -238
3 -528 l0 -529 23 -21 c29 -27 67 -28 98 -3 l24 19 3 586 c3 643 3 638 -55
650 -20 5 -124 -26 -373 -109 -189 -63 -353 -115 -364 -115 -11 0 -157 52
-326 115 -169 63 -313 115 -320 115 -7 0 -151 -52 -320 -115 -169 -63 -313
-115 -321 -115 -8 0 -152 52 -319 115 -168 63 -312 115 -321 115 -9 0 -154
-52 -322 -115 -169 -63 -312 -115 -318 -115 -6 0 -131 52 -279 115 -148 63
-275 115 -282 114 -7 0 -23 -4 -35 -9z m4767 -4244 c0 -183 -5 -357 -10 -387
-49 -259 -337 -401 -578 -283 -61 30 -143 108 -171 162 -48 94 -51 125 -51
494 l0 348 405 0 405 0 0 -334z"/>
<path d="M825 4071 c-70 -18 -125 -63 -161 -131 -18 -33 -19 -76 -22 -794 -3
-837 -3 -830 59 -900 16 -19 51 -45 77 -58 l47 -23 470 0 c428 0 475 2 530 18
194 60 340 208 390 397 20 73 20 287 0 360 -36 134 -117 246 -235 325 l-70 47
0 145 c0 164 -13 233 -63 328 -41 77 -147 185 -217 220 -134 68 -137 68 -470
71 -168 2 -318 -1 -335 -5z m617 -156 c124 -26 226 -107 282 -225 31 -64 31
-67 36 -265 3 -110 9 -206 14 -213 4 -7 37 -27 72 -44 84 -40 159 -115 198
-197 30 -64 31 -70 31 -211 0 -141 -1 -147 -31 -210 -59 -125 -181 -212 -322
-231 -102 -13 -832 -11 -871 2 -63 22 -61 -6 -61 798 0 439 4 740 10 755 19
51 43 55 320 55 183 1 274 -3 322 -14z"/>
<path d="M1009 3749 c-45 -17 -50 -47 -47 -281 3 -196 5 -218 22 -237 19 -20
27 -21 293 -21 260 0 274 1 293 20 18 18 20 33 20 183 0 155 -1 166 -25 214
-31 62 -81 102 -149 120 -59 15 -367 17 -407 2z m405 -168 c25 -23 26 -30 26
-123 l0 -98 -165 0 -165 0 0 126 0 126 139 -4 c132 -3 141 -4 165 -27z"/>
<path d="M1010 3028 c-47 -25 -50 -46 -48 -280 3 -211 4 -218 26 -240 l23 -23
357 0 c342 0 359 1 402 21 102 48 140 116 140 254 0 136 -34 200 -131 252 -43
23 -49 23 -394 26 -271 2 -356 0 -375 -10z m724 -167 c23 -22 26 -32 26 -100
0 -63 -3 -78 -22 -98 l-21 -23 -304 0 -303 0 0 118 c0 65 3 122 7 126 4 4 139
6 299 4 l292 -3 26 -24z"/>
<path d="M4335 4061 c-28 -13 -365 -345 -1084 -1064 l-1044 -1045 -57 -396
-56 -396 -87 -89 c-91 -93 -102 -116 -72 -158 19 -26 59 -37 88 -22 12 6 58
46 102 89 l80 78 365 51 c201 28 379 54 395 57 23 5 262 237 1063 1037 568
568 1044 1051 1058 1073 34 58 41 128 19 195 -16 49 -40 76 -274 311 -186 187
-268 263 -301 277 -58 26 -141 27 -195 2z m383 -384 c180 -181 252 -259 252
-275 0 -36 -24 -72 -84 -132 l-56 -55 -288 288 -287 288 71 69 c112 109 90
119 392 -183z m-278 -282 l285 -285 -33 -32 -32 -33 -287 287 -287 287 29 31
c16 16 31 30 34 30 4 0 134 -128 291 -285z m-340 0 l114 -115 -172 -173 c-178
-179 -190 -198 -158 -239 20 -27 63 -40 89 -27 12 6 95 84 185 172 l162 162
117 -118 118 -117 -798 -797 -797 -798 -117 117 -118 118 528 528 c470 471
527 531 527 559 0 43 -28 74 -68 75 -32 1 -70 -35 -563 -528 l-529 -529 -117
118 -118 117 795 795 c437 437 797 795 800 795 3 0 57 -52 120 -115z m-1310
-2099 c-5 -5 -491 -76 -520 -76 -15 0 -13 25 21 263 21 144 39 266 39 272 0 5
104 -94 232 -222 128 -128 230 -234 228 -237z"/>
<path d="M661 1804 c-24 -31 -26 -43 -9 -79 20 -43 53 -46 489 -43 384 3 408
4 428 22 27 25 28 79 1 106 -19 19 -33 20 -454 20 l-435 0 -20 -26z"/>
<path d="M1711 1812 c-30 -24 -31 -76 -2 -105 19 -20 32 -22 130 -22 126 0
151 12 151 72 0 61 -24 73 -149 73 -89 0 -113 -3 -130 -18z"/>
<path d="M668 1413 c-38 -44 -28 -102 22 -123 18 -7 99 -10 244 -8 215 3 218
3 237 27 26 32 24 73 -4 99 -23 21 -31 22 -254 22 -206 0 -231 -2 -245 -17z"/>
<path d="M1309 1412 c-30 -25 -30 -75 0 -105 21 -22 26 -22 330 -22 290 0 310
1 330 19 27 25 28 79 1 106 -19 19 -33 20 -329 20 -285 0 -311 -1 -332 -18z"/>
<path d="M677 1019 c-46 -27 -41 -105 9 -128 18 -8 183 -11 558 -11 524 0 534
0 560 21 34 27 36 79 4 109 -21 20 -32 20 -567 20 -363 -1 -552 -4 -564 -11z"/>
</g>
</svg>
