<?xml version="1.0" encoding="UTF-8"?>
<svg xmlns="http://www.w3.org/2000/svg" xmlns:xlink="http://www.w3.org/1999/xlink" width="340px" height="340px" viewBox="0 0 340 340" version="1.1">
<g id="surface1">
<path style=" stroke:none;fill-rule:nonzero;fill:rgb(19.607843%,29.019608%,36.862745%);fill-opacity:1;" d="M 340 170 C 340 263.886719 263.886719 340 170 340 C 76.113281 340 0 263.886719 0 170 C 0 76.113281 76.113281 0 170 0 C 263.886719 0 340 76.113281 340 170 Z M 340 170 "/>
<path style=" stroke:none;fill-rule:nonzero;fill:rgb(97.647059%,70.980392%,29.803922%);fill-opacity:1;" d="M 281.910156 212.5625 L 274.941406 202.933594 C 266.914062 191.6875 257.542969 181.507812 246.835938 172.675781 L 222.199219 151.269531 C 218.988281 148.3125 213.90625 148.847656 211.226562 152.332031 C 208.820312 155.542969 209.359375 160.089844 212.304688 162.765625 L 231.308594 178.566406 C 231.574219 178.835938 231.574219 179.375 231.308594 179.640625 C 231.039062 179.910156 230.5 179.910156 229.976562 179.640625 L 199.449219 154.472656 C 196.773438 152.332031 192.75 151.792969 190.074219 153.675781 C 192.214844 150.996094 192.484375 147.25 190.347656 144.300781 C 190.347656 144.035156 190.074219 144.035156 189.808594 143.765625 C 187.132812 140.816406 182.316406 140.550781 179.101562 142.957031 L 138.9375 171.34375 C 138.683594 171.613281 138.144531 171.613281 137.875 171.0625 C 137.605469 170.808594 137.605469 170.269531 138.144531 170 L 174.546875 144.035156 C 178.296875 141.359375 179.101562 136.003906 176.425781 132.253906 C 173.75 128.773438 168.9375 127.964844 165.171875 130.371094 L 123.148438 159.5625 C 127.964844 151.523438 131.179688 142.957031 130.371094 135.46875 C 130.117188 131.714844 125.03125 129.84375 121.269531 131.179688 C 119.667969 131.714844 117.800781 133.046875 116.722656 135.46875 C 116.722656 135.46875 115.386719 146.976562 100.125 156.082031 C 84.597656 165.171875 80.578125 194.09375 80.578125 194.09375 C 78.171875 204.800781 44.96875 227.015625 44.96875 227.015625 L 70.675781 260.484375 C 86.210938 250.320312 112.175781 240.675781 112.175781 240.675781 L 123.417969 236.390625 C 136.261719 231.574219 148.589844 225.148438 160.089844 217.386719 L 178.835938 204.53125 L 201.0625 223.277344 C 191.960938 220.601562 182.84375 220.066406 175.890625 222.742188 C 172.40625 224.085938 171.871094 229.421875 174.019531 232.652344 C 174.828125 233.984375 176.695312 235.59375 179.375 236.121094 C 179.375 236.121094 190.882812 234.519531 203.738281 246.835938 C 216.582031 259.144531 245.492188 255.660156 245.492188 255.660156 C 256.464844 255.132812 286.464844 281.367188 286.464844 281.367188 L 312.148438 247.898438 C 298.234375 235.058594 281.910156 212.5625 281.910156 212.5625 Z M 157.683594 200.78125 C 157.414062 201.0625 156.878906 201.0625 156.605469 200.527344 C 156.351562 200.253906 156.605469 199.71875 156.878906 199.449219 L 165.453125 193.292969 L 166.785156 194.367188 Z M 150.996094 183.917969 C 150.714844 184.183594 150.191406 184.183594 149.925781 183.648438 C 149.652344 183.394531 149.652344 182.84375 150.191406 182.585938 L 168.128906 170 C 168.386719 170.535156 168.65625 171.0625 168.9375 171.34375 Z M 208.285156 205.875 C 208.015625 206.144531 207.480469 206.144531 207.207031 205.875 L 190.074219 191.960938 C 189.808594 190.617188 189.539062 189.539062 188.730469 188.476562 L 208.285156 204.800781 C 208.550781 204.800781 208.550781 205.339844 208.285156 205.875 Z M 217.386719 190.882812 C 217.117188 191.152344 216.582031 191.152344 216.3125 190.882812 L 192.75 171.34375 C 193.023438 170.808594 193.023438 170 193.023438 169.191406 L 217.386719 189.539062 C 217.652344 190.074219 217.652344 190.617188 217.386719 190.882812 Z M 217.386719 190.882812 "/>
<path style=" stroke:none;fill-rule:nonzero;fill:rgb(100%,43.921569%,34.509804%);fill-opacity:1;" d="M 12.050781 232.90625 C 20.617188 254.597656 33.738281 274.136719 49.792969 290.207031 L 101.203125 257.542969 L 66.390625 198.375 Z M 12.050781 232.90625 "/>
<path style=" stroke:none;fill-rule:nonzero;fill:rgb(29.803922%,85.882353%,76.862745%);fill-opacity:1;" d="M 301.179688 218.449219 L 253.261719 267.71875 L 284.316406 295.824219 C 301.449219 280.296875 315.378906 261.292969 325.007812 239.875 Z M 301.179688 218.449219 "/>
<path style=" stroke:none;fill-rule:nonzero;fill:rgb(100%,81.568627%,35.686275%);fill-opacity:1;" d="M 147.785156 171.0625 C 151.792969 170.808594 155.007812 167.324219 155.007812 163.304688 L 154.472656 138.683594 C 154.472656 138.144531 154.738281 137.875 155.273438 137.875 C 155.816406 137.875 156.082031 138.144531 156.082031 138.683594 L 157.15625 178.03125 C 157.15625 182.050781 160.089844 185.527344 163.839844 186.070312 C 168.65625 186.597656 172.949219 182.84375 172.675781 178.03125 L 171.871094 142.148438 C 171.871094 141.625 172.140625 141.359375 172.675781 141.359375 C 173.214844 141.359375 173.484375 141.625 173.484375 142.148438 L 174.546875 189.003906 C 174.546875 193.558594 178.296875 197.042969 182.84375 197.042969 C 183.121094 197.042969 183.394531 197.042969 183.648438 197.042969 C 187.667969 196.234375 190.347656 192.484375 190.347656 188.476562 L 189.003906 139.21875 C 189.003906 138.683594 189.285156 138.410156 189.808594 138.410156 C 190.347656 138.410156 190.617188 138.683594 190.617188 139.21875 L 191.960938 183.917969 C 191.960938 188.476562 195.964844 192.214844 200.78125 191.960938 C 205.074219 191.6875 208.550781 187.941406 208.550781 183.648438 L 207.746094 132.792969 C 211.765625 141.359375 217.117188 148.589844 223.816406 152.058594 C 227.296875 153.929688 231.308594 150.714844 232.382812 146.976562 C 232.90625 145.378906 232.652344 142.957031 231.308594 140.816406 C 231.308594 140.816406 222.472656 133.046875 223.277344 115.386719 C 224.085938 97.71875 202.394531 78.171875 202.394531 78.171875 C 194.890625 70.140625 194.621094 30.527344 194.621094 30.527344 L 152.601562 33.1875 C 152.601562 51.664062 146.171875 78.707031 146.171875 78.707031 L 143.492188 90.484375 C 140.550781 103.878906 138.9375 117.800781 138.9375 131.449219 L 139.21875 163.839844 C 139.746094 167.859375 143.492188 171.34375 147.785156 171.0625 Z M 147.785156 171.0625 "/>
<path style=" stroke:none;fill-rule:nonzero;fill:rgb(90.196078%,91.372549%,93.333333%);fill-opacity:1;" d="M 208.285156 4.277344 C 195.964844 1.613281 183.121094 0 170 0 C 159.5625 0 149.382812 1.0625 139.746094 2.675781 L 138.683594 59.976562 L 207.207031 63.714844 Z M 208.285156 4.277344 "/>
</g>
</svg>
